<?xml version="1.0" standalone="no"?>
<!DOCTYPE svg PUBLIC "-//W3C//DTD SVG 20010904//EN"
 "http://www.w3.org/TR/2001/REC-SVG-20010904/DTD/svg10.dtd">
<svg version="1.0" xmlns="http://www.w3.org/2000/svg"
 width="40.000000pt" height="36.000000pt" viewBox="0 0 40.000000 36.000000"
 preserveAspectRatio="xMidYMid meet">
<metadata>
Created by potrace 1.10, written by Peter Selinger 2001-2011
</metadata>
<g transform="translate(0.000000,36.000000) scale(0.100000,-0.100000)"
fill="#000000" stroke="none">
<path d="M60 346 c0 -8 -3 -21 -6 -30 -5 -14 10 -16 129 -16 l134 0 -5 -25 -4
-25 -133 0 c-112 0 -134 -2 -139 -16 -16 -43 -12 -44 128 -44 l133 0 -10 -39
c-10 -36 -16 -42 -65 -59 -53 -20 -54 -20 -98 -1 -24 11 -44 26 -44 34 0 10
-11 15 -35 15 -34 0 -35 -1 -35 -39 0 -42 -6 -37 102 -76 46 -17 48 -17 130
10 46 15 85 29 87 31 6 5 60 288 56 293 -10 10 -18 -12 -41 -121 -13 -62 -26
-123 -29 -134 -4 -19 -31 -34 -58 -33 -4 0 -18 -6 -30 -14 -44 -28 -75 -29
-127 -3 -28 14 -50 22 -50 19 0 -4 -5 -2 -11 4 -7 7 -9 19 -5 29 6 15 9 15 34
-8 15 -13 46 -31 69 -38 38 -12 48 -11 85 5 24 10 51 26 61 35 21 20 36 100
18 100 -17 0 -13 18 9 40 21 21 27 65 10 75 -6 4 -62 7 -125 8 -103 1 -115 3
-115 19 0 10 -4 18 -10 18 -5 0 -10 -6 -10 -14z m195 -126 c4 -6 -22 -8 -72
-6 -43 2 -85 0 -94 -5 -10 -5 -16 -4 -16 5 0 15 173 21 182 6z"/>
</g>
</svg>
