<?xml version="1.0" standalone="no"?>
<!DOCTYPE svg PUBLIC "-//W3C//DTD SVG 20010904//EN"
 "http://www.w3.org/TR/2001/REC-SVG-20010904/DTD/svg10.dtd">
<svg version="1.0" xmlns="http://www.w3.org/2000/svg"
 width="43.000000pt" height="42.000000pt" viewBox="0 0 43.000000 42.000000"
 preserveAspectRatio="xMidYMid meet">

<g transform="translate(0.000000,42.000000) scale(0.100000,-0.100000)"
fill="#000000" stroke="none">
<path d="M0 210 l0 -210 215 0 215 0 0 210 0 210 -215 0 -215 0 0 -210z m260
176 c0 -34 15 -40 45 -20 25 16 27 16 55 -11 28 -27 29 -30 15 -51 -21 -33
-19 -41 15 -47 27 -6 30 -10 30 -47 0 -37 -3 -41 -30 -46 -34 -7 -36 -15 -15
-48 14 -21 13 -24 -15 -51 -28 -27 -30 -27 -55 -11 -30 20 -45 14 -45 -20 0
-22 -4 -24 -44 -24 -41 0 -45 2 -51 30 -8 34 -12 36 -43 14 -20 -14 -24 -14
-52 6 -33 24 -36 36 -15 64 21 28 19 33 -15 40 -27 5 -30 9 -30 46 0 37 3 41
30 47 35 6 36 10 14 41 -19 27 -14 45 20 67 23 15 27 15 48 1 31 -22 35 -20
43 14 6 28 10 30 51 30 40 0 44 -2 44 -24z"/>
<path d="M193 249 c-15 -5 -23 -17 -23 -31 0 -45 35 -66 69 -41 43 29 3 91
-46 72z"/>
</g>
</svg>
