<?xml version="1.0" standalone="no"?>
<!DOCTYPE svg PUBLIC "-//W3C//DTD SVG 20010904//EN"
 "http://www.w3.org/TR/2001/REC-SVG-20010904/DTD/svg10.dtd">
<svg version="1.0" xmlns="http://www.w3.org/2000/svg"
 width="39.000000pt" height="40.000000pt" viewBox="0 0 39.000000 40.000000"
 preserveAspectRatio="xMidYMid meet">

<g transform="translate(0.000000,40.000000) scale(0.100000,-0.100000)"
fill="#000000" stroke="none">
<path d="M0 238 c1 -149 2 -161 16 -143 35 45 70 114 90 175 l21 65 64 6 64 6
42 -41 c45 -42 51 -64 37 -146 -6 -33 -9 -37 -56 -48 -47 -11 -147 -61 -193
-96 -18 -14 -6 -15 143 -16 l162 0 0 151 c0 135 -2 150 -15 139 -14 -11 -22
-7 -55 25 -43 42 -50 62 -24 72 10 4 30 -8 55 -33 l39 -38 0 42 0 42 -195 0
-195 0 0 -162z"/>
<path d="M137 183 c-4 -3 -7 -14 -7 -23 0 -8 -24 -39 -53 -68 -41 -41 -55 -50
-65 -40 -9 9 -12 5 -12 -20 0 -29 3 -32 31 -32 27 0 30 2 19 15 -11 14 -6 23
35 65 27 28 57 50 66 50 22 0 43 26 35 45 -5 15 -37 21 -49 8z"/>
</g>
</svg>
