<?xml version="1.0" standalone="no"?>
<!DOCTYPE svg PUBLIC "-//W3C//DTD SVG 20010904//EN"
 "http://www.w3.org/TR/2001/REC-SVG-20010904/DTD/svg10.dtd">
<svg version="1.0" xmlns="http://www.w3.org/2000/svg"
 width="40.000000pt" height="36.000000pt" viewBox="0 0 40.000000 36.000000"
 preserveAspectRatio="xMidYMid meet">

<g transform="translate(0.000000,36.000000) scale(0.100000,-0.100000)"
fill="#000000" stroke="none">
<path d="M1 233 c1 -71 3 -120 6 -110 5 21 73 25 73 4 0 -7 20 -20 44 -29 41
-15 49 -15 95 0 31 10 53 23 56 34 3 10 8 27 11 38 5 19 1 20 -131 20 -121 0
-136 2 -131 16 3 9 6 22 6 30 0 11 25 14 135 14 75 0 135 4 135 9 0 5 3 16 6
25 5 14 -10 16 -126 16 l-132 0 4 30 c4 27 2 30 -24 30 l-28 0 1 -127z"/>
<path d="M365 210 l-29 -150 -85 -29 -86 -29 118 -1 117 -1 0 180 c0 99 -1
180 -3 180 -2 0 -16 -67 -32 -150z"/>
<path d="M0 30 l0 -30 78 0 77 1 -75 29 c-41 17 -76 30 -77 30 -2 0 -3 -13 -3
-30z"/>
</g>
</svg>
