<?xml version="1.0" standalone="no"?>
<!DOCTYPE svg PUBLIC "-//W3C//DTD SVG 20010904//EN"
 "http://www.w3.org/TR/2001/REC-SVG-20010904/DTD/svg10.dtd">
<svg version="1.0" xmlns="http://www.w3.org/2000/svg"
 width="39.000000pt" height="32.000000pt" viewBox="0 0 39.000000 32.000000"
 preserveAspectRatio="xMidYMid meet">

<g transform="translate(0.000000,32.000000) scale(0.100000,-0.100000)"
fill="#000000" stroke="none">
<path d="M0 296 c0 -22 3 -23 53 -18 47 4 66 14 67 35 0 4 -27 7 -60 7 -56 0
-60 -1 -60 -24z"/>
<path d="M270 313 c1 -21 20 -31 68 -35 49 -5 52 -4 52 18 0 23 -4 24 -60 24
-33 0 -60 -3 -60 -7z"/>
<path d="M128 211 c-27 -24 -33 -36 -33 -71 0 -35 6 -47 33 -71 22 -20 43 -29
67 -29 24 0 45 9 67 29 27 24 33 36 33 71 0 35 -6 47 -33 71 -22 20 -43 29
-67 29 -24 0 -45 -9 -67 -29z m123 -10 c18 -14 24 -29 24 -61 0 -51 -30 -80
-80 -80 -50 0 -80 29 -80 80 0 51 30 80 80 80 18 0 43 -9 56 -19z"/>
<path d="M320 210 c0 -5 11 -10 25 -10 14 0 25 5 25 10 0 6 -11 10 -25 10 -14
0 -25 -4 -25 -10z"/>
<path d="M98 3 c57 -2 147 -2 200 0 53 1 7 3 -103 3 -110 0 -154 -2 -97 -3z"/>
</g>
</svg>
